<svg width="84" height="84" viewBox="0 0 84 84" fill="none" xmlns="http://www.w3.org/2000/svg">
<path d="M66.8556 74.3567L53.8126 39.1397V34.125C53.8126 31.1912 54.3522 29.4436 54.9775 27.4199C55.6618 25.2028 56.4376 22.6898 56.4376 18.375C56.4376 13.7865 52.5741 3.87811 52.4096 3.45844C52.3133 3.21279 52.1452 3.00187 51.9272 2.8532C51.7092 2.70453 51.4515 2.625 51.1876 2.625H47.2501C46.9271 2.625 46.6155 2.74412 46.3748 2.95955C46.1341 3.17498 45.9813 3.4716 45.9457 3.79263L45.6054 6.85437C45.0854 11.5599 43.8704 16.1622 42.0001 20.5113C40.1298 16.1622 38.9149 11.5599 38.3949 6.85437L38.0546 3.79263C38.0189 3.4716 37.8662 3.17498 37.6255 2.95955C37.3848 2.74412 37.0731 2.625 36.7501 2.625H32.8126C32.5488 2.625 32.2911 2.70453 32.0731 2.8532C31.8551 3.00187 31.687 3.21279 31.5907 3.45844C31.4261 3.87811 27.5626 13.7865 27.5626 18.375C27.5626 22.6898 28.3385 25.2028 29.0228 27.4199C29.6477 29.4436 30.1876 31.1912 30.1876 34.125V39.1397L17.1447 74.3567C17.0324 74.66 17.036 74.994 17.1548 75.2947C17.2736 75.5954 17.4992 75.8417 17.7884 75.9864C18.2275 76.207 28.718 81.375 42.0001 81.375C55.2823 81.375 65.7728 76.207 66.2122 75.9864C66.5013 75.8417 66.7269 75.5954 66.8456 75.2946C66.9643 74.9939 66.9679 74.6599 66.8556 74.3567ZM33.7176 5.25H35.5754L35.7859 7.14427C36.4428 13.087 38.1494 18.8659 40.8263 24.212C40.9353 24.43 41.1028 24.6133 41.3102 24.7414C41.5175 24.8695 41.7564 24.9374 42.0001 24.9374C42.2438 24.9374 42.4828 24.8695 42.6901 24.7414C42.8974 24.6133 43.065 24.43 43.174 24.212C45.8509 18.8659 47.5574 13.087 48.2143 7.14427L48.4248 5.25H50.2828C50.6497 6.22978 51.2836 7.97163 51.9113 9.92447C53.1552 13.7934 53.8126 16.7155 53.8126 18.375C53.8126 22.2938 53.1295 24.5062 52.469 26.6456C51.9259 28.4035 51.3681 30.2151 51.2244 32.8125H32.7759C32.6318 30.2151 32.0742 28.4035 31.5313 26.6456C30.8708 24.5062 30.1876 22.2938 30.1876 18.375C30.1876 14.986 32.7962 7.71176 33.7176 5.25ZM32.8126 38.0625V35.4375H51.1876V38.0625H32.8126ZM42.0001 78.75C31.7164 78.75 22.9825 75.3995 20.0299 74.1234L32.4136 40.6875H35.1259L31.5293 57.475L34.0959 58.025L37.8111 40.6875H40.6876V51.1875H43.3126V40.6875H46.1891L49.9043 58.025L52.4709 57.475L48.8743 40.6875H51.5873L63.9711 74.1234C61.0174 75.3997 52.2839 78.75 42.0001 78.75Z" fill="#CC9933"/>
</svg>
