<svg width="84" height="84" viewBox="0 0 84 84" fill="none" xmlns="http://www.w3.org/2000/svg">
<g clip-path="url(#clip0_256_9785)">
<path d="M65.3228 40.5495C65.0967 35.8679 64.1561 31.678 64.07 31.3023C62.9921 25.7922 61.9948 13.1818 61.9376 12.4506C61.825 11.0116 61.8047 9.58382 61.5793 8.15322C61.3903 6.95329 61.1202 5.74418 60.6366 4.62513C60.3342 3.92558 59.9272 3.31183 59.4048 2.7583C58.8326 2.1521 58.1329 1.6783 57.3874 1.31097C56.6429 0.944131 55.8506 0.679011 55.0453 0.482796C53.7635 0.170427 52.4229 0.0214612 51.1042 0.00325066C50.7405 -0.00183518 50.3802 -0.0105303 50.0223 0.0626401C49.6746 0.133678 49.3342 0.20652 48.9849 0.273456C46.4983 0.750377 43.933 1.22139 41.3924 1.19793C39.6345 1.18185 37.9076 0.89196 36.1816 0.598786C35.4638 0.476562 34.7479 0.344986 34.0334 0.20488C33.5215 0.104475 33.0341 0.000461655 32.5153 0.00226631C31.2157 0.00685997 29.9265 0.170919 28.6734 0.515608C27.387 0.869484 26.1444 1.4345 25.123 2.30008C23.9173 3.32168 23.3234 4.46304 22.8942 5.9586C22.2918 8.05758 22.1151 10.2768 22.0625 12.4506C22.0052 13.1816 21.0082 25.7914 19.93 31.3025C19.8436 31.6798 18.9033 35.8689 18.6773 40.5494C18.349 47.3457 19.6936 51.6665 22.6736 53.3918C22.8604 53.4999 23.0726 53.557 23.2885 53.557H25.8732C25.6116 55.2888 25.376 56.9902 25.1825 58.6039C25.1817 58.6111 25.1809 58.6184 25.1801 58.6257C25.1704 58.7216 24.1896 68.3359 22.8849 79.6962C22.7463 80.9039 23.5314 82.0127 24.7114 82.2756C27.1189 82.8119 33.2843 84.0001 40.633 84.0001C41.0974 84.0001 41.5675 83.9954 42.0408 83.9854C43.7752 84.0218 45.5712 83.9898 47.3798 83.8902C48.0567 83.853 48.5751 83.274 48.5377 82.5973C48.5005 81.9205 47.9174 81.4011 47.2449 81.4393C45.489 81.5361 43.7467 81.5667 42.0672 81.5307C42.0496 81.5304 42.0319 81.5304 42.0145 81.5307C34.3966 81.6943 27.8726 80.4602 25.3323 79.8992C26.6141 68.7336 27.5816 59.2708 27.6208 58.8859C28.753 49.4443 31.3451 36.9478 32.1646 33.1047C33.3187 33.3086 35.2377 33.5895 37.7419 33.7506C36.7338 37.5013 34.1994 47.9786 33.871 59.5845C33.8518 60.2621 34.3854 60.8268 35.063 60.846C35.0748 60.8463 35.0866 60.8465 35.0983 60.8465C35.7601 60.8465 36.3056 60.3197 36.3245 59.6539C36.6637 47.6633 39.4121 36.9056 40.2557 33.8603C40.7359 33.8715 41.2303 33.8779 41.7397 33.8779C42.4093 33.8779 43.1044 33.8666 43.821 33.8433C44.659 36.8652 47.4168 47.6407 47.7569 59.6539C47.7758 60.3197 48.3213 60.8465 48.9831 60.8465C48.9948 60.8465 49.0066 60.8463 49.0184 60.846C49.696 60.8268 50.2296 60.2619 50.2104 59.5845C49.8808 47.9394 47.3304 37.4304 46.3293 33.7128C48.09 33.587 49.9573 33.3821 51.9086 33.0709C52.7289 36.9297 55.3844 49.7475 56.4616 58.894C56.4626 58.9022 56.4636 58.9106 56.4647 58.9188C56.4803 59.0321 58.04 70.3409 58.7494 79.8993C57.472 80.1815 55.4311 80.5811 52.8233 80.9211C52.1511 81.0087 51.6771 81.6244 51.7647 82.2966C51.8455 82.9149 52.3729 83.3654 52.9803 83.3654C53.0331 83.3654 53.0867 83.362 53.1404 83.3549C55.8984 82.9956 58.0505 82.5697 59.37 82.2759C60.5209 82.0195 61.291 80.9554 61.2013 79.7458C60.4973 70.2584 58.9579 59.0318 58.8977 58.5942C58.71 57.0022 58.4753 55.3016 58.2113 53.5573H60.7107C60.9266 53.5573 61.1389 53.5004 61.3256 53.3921C64.3064 51.6667 65.6509 47.3458 65.3228 40.5495ZM60.3523 51.1025H57.8264C56.4772 42.7943 54.6596 34.1853 54.1808 31.9553C56.4201 28.6026 56.0567 21.5359 55.9806 20.3807C56.0839 18.6465 57.1137 15.779 57.507 14.8086C57.7616 14.1806 57.4589 13.465 56.8309 13.2102C56.2025 12.9557 55.4874 13.2579 55.2326 13.886C55.1677 14.0457 53.6416 17.8319 53.5251 20.333C53.5228 20.3807 53.5235 20.4286 53.5269 20.4764C53.731 23.3712 53.5249 28.4736 52.1747 30.5401C41.9373 32.2839 33.817 30.9307 31.9209 30.559C30.5624 28.5077 30.3527 23.3819 30.5558 20.4765C30.5593 20.4288 30.5597 20.3809 30.5574 20.3333C30.4411 17.8322 28.9151 14.0461 28.8502 13.8863C28.5953 13.2581 27.8793 12.9561 27.2515 13.2105C26.6235 13.4655 26.3209 14.1811 26.5757 14.8093C26.969 15.778 27.9985 18.6424 28.102 20.3809C28.0258 21.5352 27.6623 28.6017 29.9012 31.9551C29.424 34.1698 27.6216 42.6792 26.2581 51.103H23.6479C21.7649 49.7556 20.8716 46.0852 21.1276 40.6993C21.3457 36.1134 22.3164 31.878 22.3263 31.8357C22.3294 31.8222 22.3323 31.8084 22.335 31.7948C23.4688 26.018 24.4704 13.1526 24.5124 12.6078C24.5142 12.5858 24.5151 12.564 24.5156 12.542C24.6477 6.91064 25.8171 5.14569 25.9854 4.9206C27.1949 3.30281 29.3464 2.71974 31.2636 2.52665C31.3344 2.51943 32.0525 2.42427 32.0697 2.46906C32.4197 3.38074 32.9494 4.48158 33.6747 5.80472C34.0006 6.3991 34.7467 6.61697 35.3408 6.29099C35.9352 5.96517 36.1529 5.21935 35.827 4.62497C35.4755 3.98349 35.1729 3.39829 34.9206 2.87117C36.9218 3.23227 39.8219 3.6854 41.6862 3.65177C43.5587 3.68409 46.4514 3.23227 48.4524 2.87101C47.763 4.31292 46.579 6.44176 44.5643 9.5748C43.4729 11.272 42.4188 12.823 41.6861 13.8822C40.9375 12.8 39.8531 11.2039 38.735 9.46127C38.3688 8.89067 37.6097 8.72497 37.0393 9.09099C36.4688 9.457 36.303 10.2161 36.669 10.7867C38.7224 13.9872 40.6689 16.7079 40.6883 16.735C40.9188 17.0567 41.2902 17.2475 41.6859 17.2475C42.0816 17.2475 42.4531 17.0567 42.6836 16.735C42.9758 16.3273 49.4459 7.2696 51.3028 2.46348C51.8804 2.47956 52.7081 2.53255 53.6114 2.6871C55.0587 2.9345 56.974 3.4946 57.8784 4.75753C57.9427 4.8471 57.9422 4.86285 58.0134 4.92011C58.1796 5.14208 59.3517 6.90457 59.4836 12.5421C59.4841 12.564 59.4852 12.5859 59.487 12.6079C59.529 13.1528 60.5308 26.0181 61.6644 31.795C61.6672 31.8088 61.67 31.8224 61.6731 31.836C61.6829 31.878 62.6488 36.084 62.8702 40.6683C63.1319 46.0711 62.2391 49.7523 60.3523 51.1025Z" fill="#CC9933"/>
<path d="M42 18.9678C41.4873 18.9678 41.0718 19.3833 41.0718 19.8959C41.0718 20.4086 41.4873 20.8241 42 20.8241C42.5127 20.8241 42.9283 20.4086 42.9283 19.8959C42.9281 19.3833 42.5126 18.9678 42 18.9678Z" fill="#CC9933"/>
<path d="M42 22.4395C41.4873 22.4395 41.0718 22.855 41.0718 23.3676C41.0718 23.8802 41.4873 24.2958 42 24.2958C42.5127 24.2958 42.9283 23.8802 42.9283 23.3676C42.9281 22.855 42.5126 22.4395 42 22.4395Z" fill="#CC9933"/>
</g>
<defs>
<clipPath id="clip0_256_9785">
<rect width="84" height="84" fill="white"/>
</clipPath>
</defs>
</svg>
