<svg width="30" height="30" viewBox="0 0 30 30" fill="none" xmlns="http://www.w3.org/2000/svg">
<path d="M19.4388 16.2451L16.9262 18.7662C15.9073 19.7886 14.1146 19.8107 13.0737 18.7662L10.561 16.2451L1.53662 25.2988C1.87254 25.4541 2.24291 25.5468 2.63666 25.5468H27.3632C27.757 25.5468 28.1272 25.4542 28.463 25.2988L19.4388 16.2451Z" fill="white"/>
<path d="M27.3634 4.45312H2.63679C2.24304 4.45312 1.87267 4.54582 1.53687 4.70115L11.18 14.3763C11.1807 14.377 11.1815 14.3771 11.1821 14.3777C11.1827 14.3784 11.1829 14.3793 11.1829 14.3793L14.3184 17.5252C14.6514 17.8582 15.3488 17.8582 15.6819 17.5252L18.8168 14.3798C18.8168 14.3798 18.8175 14.3784 18.8182 14.3777C18.8182 14.3777 18.8196 14.377 18.8202 14.3763L28.4632 4.70109C28.1274 4.5457 27.7571 4.45312 27.3634 4.45312Z" fill="white"/>
<path d="M0.28043 5.93018C0.106641 6.28162 0 6.67174 0 7.08963V22.9099C0 23.3278 0.106523 23.7179 0.280371 24.0694L9.32039 15.0001L0.28043 5.93018Z" fill="white"/>
<path d="M29.7196 5.93018L20.6797 15.0002L29.7196 24.0696C29.8934 23.7182 30 23.3281 30 22.9101V7.08975C30 6.67174 29.8934 6.28162 29.7196 5.93018Z" fill="white"/>
</svg>
