<svg width="30" height="30" viewBox="0 0 30 30" fill="none" xmlns="http://www.w3.org/2000/svg">
<g clip-path="url(#clip0_360_2891)">
<path d="M15 6.05859C20.7318 6.05859 25.9297 9.19452 29.7653 14.2881C30.0782 14.7054 30.0782 15.2884 29.7653 15.7057C25.9297 20.8054 20.7318 23.9414 15 23.9414C9.26818 23.9414 4.07027 20.8054 0.234735 15.7119C-0.0782452 15.2946 -0.0782452 14.7116 0.234735 14.2942C4.07027 9.19452 9.26818 6.05859 15 6.05859ZM14.5888 21.2964C18.3937 21.5357 21.5357 18.3998 21.2964 14.5888C21.1 11.4467 18.5532 8.89995 15.4112 8.70358C11.6063 8.46424 8.46425 11.6002 8.70359 15.4112C8.90611 18.5471 11.4529 21.0939 14.5888 21.2964ZM14.7791 18.3875C16.8288 18.5164 18.5226 16.8288 18.3875 14.7791C18.2832 13.0853 16.9086 11.7168 15.2148 11.6063C13.1651 11.4774 11.4713 13.1651 11.6063 15.2148C11.7168 16.9147 13.0914 18.2832 14.7791 18.3875Z" fill="#201A3C"/>
</g>
<defs>
<clipPath id="clip0_360_2891">
<rect width="30" height="30" fill="white" transform="matrix(-1 0 0 1 30 0)"/>
</clipPath>
</defs>
</svg>
