<svg width="31" height="31" viewBox="0 0 31 31" fill="none" xmlns="http://www.w3.org/2000/svg">
<g clip-path="url(#clip0_281_6906)">
<path d="M15.5001 2.90625L4.71631 13.3959V28.8051H26.2838V13.3959L15.5001 2.90625Z" fill="#DFEBFA"/>
<path d="M7.27381 14.9692C7.27381 14.6014 7.42251 14.2492 7.68619 13.9927L17.2918 4.64909L15.5001 2.90625L4.71631 13.3959V28.805H7.27381V14.9692Z" fill="#B1DBFC"/>
<path d="M22.1089 2.19434V6.10524L25.562 9.4642V2.19434H22.1089Z" fill="#695D67"/>
<path d="M24.1087 6.37098C23.934 6.20109 23.8354 5.96774 23.8354 5.72404V2.19434H22.1089V6.10524L25.562 9.4642V7.78469L24.1087 6.37098Z" fill="#544E55"/>
<path d="M29.1447 12.7624L16.4007 0.36587C15.8993 -0.121957 15.1008 -0.121957 14.5994 0.36587L1.85542 12.7624C1.34404 13.2597 1.33271 14.0776 1.83017 14.5889C2.32762 15.1003 3.14543 15.1116 3.65675 14.6142L15.3228 3.26625C15.4215 3.17028 15.5786 3.17028 15.6773 3.26625L27.3434 14.6141C27.855 15.1118 28.6727 15.1001 29.1699 14.5889C29.6674 14.0776 29.6561 13.2597 29.1447 12.7624Z" fill="#FF656F"/>
<path d="M15.3228 3.26625C15.3671 3.22314 15.4233 3.20049 15.4806 3.19607L16.6161 2.09152C16.9515 1.76529 17.4194 1.65842 17.8428 1.76856L16.4007 0.36587C15.8993 -0.121957 15.1008 -0.121957 14.5994 0.36587L1.85542 12.7624C1.34404 13.2597 1.33271 14.0776 1.83017 14.5889C2.32762 15.1003 3.14543 15.1116 3.65675 14.6142L15.3228 3.26625Z" fill="#FF4756"/>
<path d="M26.5637 1.93054V0.451074C26.5637 0.201984 26.3617 0 26.1126 0H21.5582C21.3091 0 21.1072 0.201924 21.1072 0.451074V1.9306C21.1072 2.17969 21.3091 2.38167 21.5582 2.38167H26.1126C26.3617 2.38161 26.5637 2.17969 26.5637 1.93054Z" fill="#7B6C79"/>
<path d="M22.8337 1.93054V0.451074C22.8337 0.201984 23.0357 0 23.2847 0H21.5582C21.3091 0 21.1072 0.201924 21.1072 0.451074V1.9306C21.1072 2.17969 21.3091 2.38167 21.5582 2.38167H23.2847C23.0357 2.38161 22.8337 2.17969 22.8337 1.93054Z" fill="#695D67"/>
<path d="M7.21143 17.126H14.4451V28.805H7.21143V17.126Z" fill="#AB6B51"/>
<path d="M7.21143 17.126H9.55411V28.805H7.21143V17.126Z" fill="#965A44"/>
<path d="M16.5549 17.1885V25.9227C16.5549 26.1153 16.7111 26.2715 16.9037 26.2715H23.4398C23.6324 26.2715 23.7887 26.1153 23.7887 25.9227V17.1885H16.5549Z" fill="#60B8FE"/>
<path d="M18.8976 25.9227V17.1885H16.5549V25.9227C16.5549 26.1153 16.7111 26.2715 16.9037 26.2715H19.2464C19.0538 26.2715 18.8976 26.1153 18.8976 25.9227Z" fill="#23A8FE"/>
<path d="M20.6395 17.2508C20.6395 17.2296 20.6377 17.2089 20.6349 17.1885H19.7086C19.7059 17.2089 19.704 17.2296 19.704 17.2508V21.2934H16.5549V22.229H19.704V26.2714H20.6396V22.229H23.7887V21.2934H20.6396V17.2508H20.6395Z" fill="#8BCAFF"/>
<path d="M16.5549 21.2939H18.8976V22.2296H16.5549V21.2939Z" fill="#60B8FE"/>
<path d="M23.4398 14.9805H16.9037C16.7111 14.9805 16.5549 15.1366 16.5549 15.3293V17.2516H23.7886V15.3293C23.7886 15.1367 23.6324 14.9805 23.4398 14.9805Z" fill="#23A8FE"/>
<path d="M19.2464 14.9805H16.9037C16.7111 14.9805 16.5549 15.1366 16.5549 15.3293V17.2517H18.8976V15.3293C18.8976 15.1367 19.0538 14.9805 19.2464 14.9805Z" fill="#0193FA"/>
<path d="M14.0963 14.9805H7.56024C7.36764 14.9805 7.21143 15.1366 7.21143 15.3293V17.2517H14.4451V15.3293C14.4451 15.1367 14.2889 14.9805 14.0963 14.9805Z" fill="#BC7C63"/>
<path d="M9.90292 14.9805H7.56024C7.36764 14.9805 7.21143 15.1366 7.21143 15.3293V17.2517H9.55411V15.3293C9.55411 15.1367 9.71026 14.9805 9.90292 14.9805Z" fill="#AB6B51"/>
<path d="M11.9243 23.2147C12.4415 23.2147 12.8608 22.7955 12.8608 22.2783C12.8608 21.7611 12.4415 21.3418 11.9243 21.3418C11.4071 21.3418 10.9878 21.7611 10.9878 22.2783C10.9878 22.7955 11.4071 23.2147 11.9243 23.2147Z" fill="#DFEBFA"/>
<path d="M26.7393 28.6182H4.26107C4.01198 28.6182 3.81006 28.8201 3.81006 29.0692V30.5488C3.81006 30.7979 4.01198 30.9998 4.26107 30.9998H26.7393C26.9884 30.9998 27.1904 30.7979 27.1904 30.5488V29.0692C27.1904 28.8201 26.9884 28.6182 26.7393 28.6182Z" fill="#43CB8E"/>
<path d="M6.66363 30.5488V29.0692C6.66363 28.8201 6.86556 28.6182 7.11465 28.6182H4.26107C4.01198 28.6182 3.81006 28.8201 3.81006 29.0692V30.5488C3.81006 30.7978 4.01198 30.9998 4.26107 30.9998H7.11471C6.86556 30.9998 6.66363 30.7979 6.66363 30.5488Z" fill="#00BA66"/>
</g>
<defs>
<clipPath id="clip0_281_6906">
<rect width="31" height="31" fill="white"/>
</clipPath>
</defs>
</svg>
