<svg width="26" height="26" viewBox="0 0 26 26" fill="none" xmlns="http://www.w3.org/2000/svg">
<path d="M13.4669 6.09961C9.91156 6.09961 7.0332 8.9811 7.0332 12.5333C7.0332 16.0887 9.9147 18.9671 13.4669 18.9671C17.0223 18.9671 19.9007 16.0856 19.9007 12.5333C19.9007 8.97797 17.0192 6.09961 13.4669 6.09961V6.09961ZM13.4669 16.7093C11.159 16.7093 9.29096 14.8402 9.29096 12.5333C9.29096 10.2265 11.1601 8.35737 13.4669 8.35737C15.7738 8.35737 17.6429 10.2265 17.6429 12.5333C17.644 14.8402 15.7748 16.7093 13.4669 16.7093V16.7093Z" fill="white"/>
<path d="M18.6323 0.0792505C16.3254 -0.0283615 10.6115 -0.0231376 8.30257 0.0792505C6.27362 0.174325 4.48392 0.664325 3.04108 2.10716C0.629737 4.51851 0.937946 7.76776 0.937946 12.533C0.937946 17.41 0.666304 20.584 3.04108 22.9588C5.46183 25.3785 8.75809 25.0619 13.4669 25.0619C18.2979 25.0619 19.9654 25.0651 21.6736 24.4037C23.9962 23.5021 25.7493 21.4261 25.9206 17.6973C26.0293 15.3894 26.023 9.67657 25.9206 7.36761C25.7138 2.96597 23.3515 0.296564 18.6323 0.0792505V0.0792505ZM22.2838 21.3634C20.703 22.9442 18.51 22.8031 13.4366 22.8031C8.21272 22.8031 6.11795 22.8805 4.58944 21.3478C2.82899 19.5957 3.14765 16.7821 3.14765 12.5163C3.14765 6.74388 2.55526 2.58671 8.34854 2.29C9.67959 2.24298 10.0714 2.22731 13.422 2.22731L13.469 2.25865C19.0366 2.25865 23.4048 1.67567 23.667 7.46791C23.7266 8.78955 23.7402 9.18657 23.7402 12.5319C23.7391 17.6952 23.8373 19.8025 22.2838 21.3634V21.3634Z" fill="white"/>
<path d="M20.1555 7.34915C20.9859 7.34915 21.659 6.67604 21.659 5.84572C21.659 5.0154 20.9859 4.34229 20.1555 4.34229C19.3252 4.34229 18.6521 5.0154 18.6521 5.84572C18.6521 6.67604 19.3252 7.34915 20.1555 7.34915Z" fill="white"/>
</svg>
