<svg width="37" height="37" viewBox="0 0 37 37" fill="none" xmlns="http://www.w3.org/2000/svg">
<path d="M22.2812 16.3446C23.1793 16.3446 23.9072 15.6166 23.9072 14.7186C23.9072 13.8206 23.1793 13.0927 22.2812 13.0927C21.3832 13.0927 20.6553 13.8206 20.6553 14.7186C20.6553 15.6166 21.3832 16.3446 22.2812 16.3446Z" fill="#201A3C"/>
<path d="M16.501 18.1994L16.0166 18.6838C16.3941 19.06 16.9442 19.6084 17.1645 19.8287C17.4279 20.0921 17.955 20.6161 18.3183 20.9772C18.4991 20.794 18.6999 20.5901 18.8125 20.4735C19.38 19.8858 19.0673 19.056 18.5056 18.4943C17.9499 17.9385 17.1313 17.5691 16.501 18.1994Z" fill="#201A3C"/>
<path d="M11.4482 27.1777C12.3462 27.1777 13.0742 26.4498 13.0742 25.5518C13.0742 24.6538 12.3462 23.9258 11.4482 23.9258C10.5502 23.9258 9.82227 24.6538 9.82227 25.5518C9.82227 26.4498 10.5502 27.1777 11.4482 27.1777Z" fill="#201A3C"/>
<path d="M17.4608 7.27478C12.072 7.76944 7.76914 12.0724 7.27441 17.4612L17.4608 7.27478Z" fill="#201A3C"/>
<path d="M19.5381 29.7251C24.9269 29.2305 29.2298 24.9275 29.7245 19.5387L19.5381 29.7251Z" fill="#201A3C"/>
<path d="M5.10651 19.6297C5.07536 19.2571 5.05859 18.8805 5.05859 18.5C5.05859 11.0884 11.0884 5.05859 18.5 5.05859C18.8805 5.05859 19.2571 5.07536 19.6297 5.10651L23.9266 0.80952C22.2104 0.283715 20.3884 0 18.5 0C8.28273 0 0 8.28273 0 18.5C0 20.3884 0.283715 22.2105 0.80952 23.9266L5.10651 19.6297Z" fill="#201A3C"/>
<path d="M31.8934 17.3704C31.9245 17.7429 31.9413 18.1195 31.9413 18.5C31.9413 25.9116 25.9115 31.9414 18.4999 31.9414C18.1194 31.9414 17.7428 31.9246 17.3702 31.8935L13.0732 36.1905C14.7894 36.7163 16.6114 37 18.4999 37C28.7172 37 36.9999 28.7173 36.9999 18.5C36.9999 16.6116 36.7162 14.7895 36.1904 13.0734L31.8934 17.3704Z" fill="#201A3C"/>
<path fill-rule="evenodd" clip-rule="evenodd" d="M0.634998 27.1671L27.1671 0.634998C28.0138 -0.211666 29.3865 -0.211666 30.233 0.634998L36.365 6.76695C37.2116 7.61354 37.2117 8.98623 36.365 9.83289L9.83289 36.365C8.9863 37.2117 7.61362 37.2117 6.76695 36.365L0.634998 30.233C-0.211666 29.3865 -0.211666 28.0138 0.634998 27.1671Z" fill="#201A3C"/>
<path d="M8.37386 30.296L9.21108 31.1332L8.62276 31.7215C9.02629 32.125 9.24125 32.521 9.26765 32.9094C9.29404 33.2979 9.13942 33.6599 8.80378 33.9955C8.58128 34.218 8.30221 34.4142 7.96657 34.5839L7.39523 33.6844C7.61019 33.5524 7.76669 33.4374 7.86475 33.3394C7.98165 33.2224 8.03445 33.1055 8.02314 32.9886C8.01182 32.8717 7.92697 32.7341 7.76858 32.5757L5.05329 29.8604L5.90747 29.0062L7.78555 30.8843L8.37386 30.296ZM12.4414 27.9029L9.06988 31.2744C8.93788 31.4064 8.79269 31.4761 8.6343 31.4837C8.46836 31.4912 8.32506 31.4347 8.20438 31.314C8.07616 31.1858 8.01582 31.0424 8.02336 30.8841C8.02713 30.7219 8.0969 30.5729 8.23266 30.4372L8.65693 30.0129C8.34014 29.9148 8.05353 29.7376 7.79708 29.4812C7.51801 29.2021 7.32568 28.8778 7.22008 28.5082C7.11826 28.1348 7.139 27.7294 7.28231 27.292C7.42562 26.8545 7.72355 26.4095 8.17609 25.9569L9.33575 24.7973L12.4414 27.9029ZM9.33009 26.5113L9.01896 26.8224C8.62676 27.2146 8.41368 27.5635 8.37974 27.869C8.3458 28.1744 8.43065 28.429 8.6343 28.6326C8.83795 28.8363 9.09062 28.9192 9.39232 28.8815C9.69402 28.8438 10.0447 28.6251 10.4445 28.2253L10.7443 27.9255L9.33009 26.5113ZM7.46333 25.8891C7.33134 26.021 7.17106 26.087 6.9825 26.087C6.79394 26.087 6.63366 26.021 6.50166 25.8891C6.36967 25.7571 6.30367 25.5968 6.30367 25.4082C6.30367 25.2197 6.36967 25.0594 6.50166 24.9274C6.63366 24.7954 6.79394 24.7294 6.9825 24.7294C7.17106 24.7294 7.33134 24.7954 7.46333 24.9274C7.59532 25.0594 7.66132 25.2197 7.66132 25.4082C7.66132 25.5968 7.59532 25.7571 7.46333 25.8891ZM16.5945 23.7497L15.9949 24.3494C16.3871 24.8773 16.5587 25.3997 16.5097 25.9163C16.4644 26.4368 16.1985 26.9402 15.712 27.4267C15.4745 27.6643 15.1954 27.8943 14.8748 28.1168L14.0489 27.2909C14.328 27.0797 14.558 26.8836 14.7391 26.7026C14.9993 26.4424 15.1596 26.1916 15.2199 25.9503C15.2878 25.7089 15.2557 25.4657 15.1237 25.2205L14.8861 25.4581C14.4411 25.9031 14.0037 26.201 13.5737 26.3519C13.1438 26.4952 12.7478 26.5178 12.3858 26.4198C12.0238 26.3217 11.707 26.1369 11.4355 25.8654C11.1602 25.5901 10.9716 25.2658 10.8698 24.8924C10.7679 24.5191 10.7887 24.1137 10.932 23.6762C11.0753 23.2387 11.3676 22.7994 11.8088 22.3582L12.9345 21.2324L15.186 23.4839L15.7573 22.9125L16.5945 23.7497ZM12.25 25.0282C12.4499 25.2281 12.7026 25.3073 13.0081 25.2658C13.3135 25.2243 13.6643 25.0056 14.0602 24.6096L14.3431 24.3267L12.9458 22.9295L12.6517 23.2237C12.2595 23.6159 12.0445 23.9666 12.0068 24.2758C11.9691 24.5775 12.0502 24.8283 12.25 25.0282ZM17.1505 21.1007C17.4296 21.1007 17.7294 20.9404 18.05 20.6199L18.8872 21.4571C18.2875 22.0567 17.7162 22.2962 17.1731 22.1755C17.1958 22.4697 17.1467 22.7638 17.0261 23.058C16.9092 23.3484 16.7187 23.6255 16.4547 23.8895C16.3265 24.0178 16.1775 24.0838 16.0078 24.0875C15.8381 24.0913 15.6929 24.0328 15.5723 23.9122C15.4516 23.7915 15.395 23.6519 15.4025 23.4936C15.4101 23.3352 15.4817 23.1881 15.6175 23.0523C15.8249 22.8449 15.9343 22.6149 15.9456 22.3622C15.9569 22.1095 15.8419 21.8625 15.6005 21.6211L14.4465 20.4671L15.3007 19.613L16.4547 20.7669C16.6697 20.9819 16.9016 21.0932 17.1505 21.1007ZM13.8017 20.0938C13.6697 20.2258 13.5094 20.2918 13.3208 20.2918C13.1323 20.2918 12.972 20.2258 12.84 20.0938C12.708 19.9618 12.642 19.8015 12.642 19.613C12.642 19.4244 12.708 19.2641 12.84 19.1321C12.972 19.0001 13.1323 18.9341 13.3208 18.9341C13.5094 18.9341 13.6697 19.0001 13.8017 19.1321C13.9337 19.2641 13.9996 19.4244 13.9996 19.613C13.9996 19.8015 13.9337 19.9618 13.8017 20.0938ZM14.9274 18.9681C14.7954 19.1001 14.6351 19.1661 14.4465 19.1661C14.258 19.1661 14.0977 19.1001 13.9657 18.9681C13.8337 18.8361 13.7677 18.6758 13.7677 18.4872C13.7677 18.2987 13.8337 18.1384 13.9657 18.0064C14.0977 17.8744 14.258 17.8084 14.4465 17.8084C14.6351 17.8084 14.7954 17.8744 14.9274 18.0064C15.0594 18.1384 15.1254 18.2987 15.1254 18.4872C15.1254 18.6758 15.0594 18.8361 14.9274 18.9681ZM17.6975 16.4356C17.9878 16.1452 18.3197 15.9566 18.6931 15.8699C19.0702 15.7794 19.4492 15.7926 19.8301 15.9095C20.211 16.0188 20.5504 16.2225 20.8483 16.5204C21.1576 16.8297 21.3593 17.1634 21.4536 17.5217C21.5441 17.8762 21.5385 18.2212 21.4366 18.5569C21.3348 18.8925 21.1538 19.1905 20.8936 19.4507C20.6899 19.6543 20.4524 19.8203 20.1808 19.9485C19.9131 20.0729 19.6227 20.1483 19.3097 20.1747C19.3361 20.4274 19.3002 20.6782 19.2022 20.9271C19.1041 21.1685 18.9514 21.3929 18.744 21.6003C18.6158 21.7285 18.4668 21.7945 18.2971 21.7983C18.1274 21.802 17.9822 21.7436 17.8615 21.6229C17.7408 21.5022 17.6843 21.3627 17.6918 21.2043C17.6993 21.0459 17.771 20.8988 17.9068 20.7631C18.0274 20.6424 18.0991 20.5292 18.1217 20.4236C18.1406 20.3143 18.1255 20.2087 18.0765 20.1069C18.0312 20.0013 17.9483 19.8504 17.8276 19.6543C17.7031 19.4544 17.6239 19.3224 17.59 19.2583C17.277 18.7115 17.1261 18.1948 17.1374 17.7084C17.1525 17.2181 17.3392 16.7938 17.6975 16.4356ZM19.9828 18.8001C20.1903 18.5927 20.3015 18.3608 20.3166 18.1043C20.3279 17.8441 20.2204 17.6009 19.9941 17.3746C19.7754 17.1559 19.5322 17.0371 19.2644 17.0182C18.9929 16.9956 18.7553 17.0861 18.5516 17.2898C18.397 17.4444 18.3235 17.6235 18.331 17.8272C18.3386 18.0233 18.4178 18.2722 18.5686 18.5739C18.6403 18.7209 18.727 18.8642 18.8288 19.0038C18.8477 19.0377 18.8722 19.0773 18.9024 19.1226C18.9325 19.1603 18.9627 19.2093 18.9929 19.2696C19.189 19.247 19.3738 19.1942 19.5473 19.1113C19.717 19.0245 19.8622 18.9208 19.9828 18.8001ZM24.9986 13.6712L25.8358 14.5084L25.2475 15.0967C25.651 15.5003 25.866 15.8963 25.8924 16.2847C25.9188 16.6731 25.7642 17.0352 25.4285 17.3708C25.206 17.5933 24.927 17.7894 24.5913 17.9591L24.02 17.0597C24.2349 16.9277 24.3914 16.8127 24.4895 16.7146C24.6064 16.5977 24.6592 16.4808 24.6479 16.3639C24.6366 16.247 24.5517 16.1093 24.3933 15.9509L21.678 13.2356L22.5322 12.3815L24.4103 14.2595L24.9986 13.6712ZM26.3904 11.8608C26.6695 11.8608 26.9693 11.7005 27.2899 11.38L28.1271 12.2172C27.5274 12.8168 26.9561 13.0563 26.413 12.9356C26.4357 13.2298 26.3866 13.5239 26.266 13.8181C26.1491 14.1085 25.9586 14.3856 25.6946 14.6496C25.5664 14.7779 25.4174 14.8439 25.2477 14.8476C25.078 14.8514 24.9328 14.7929 24.8122 14.6723C24.6915 14.5516 24.6349 14.412 24.6424 14.2537C24.65 14.0953 24.7216 13.9482 24.8574 13.8124C25.0648 13.605 25.1742 13.375 25.1855 13.1223C25.1968 12.8696 25.0818 12.6226 24.8404 12.3812L23.6864 11.2272L24.5406 10.3731L25.6946 11.5271C25.9096 11.742 26.1415 11.8533 26.3904 11.8608ZM27.7254 15.5491C27.5934 15.6811 27.4332 15.7471 27.2446 15.7471C27.056 15.7471 26.8958 15.6811 26.7638 15.5491C26.6318 15.4171 26.5658 15.2568 26.5658 15.0682C26.5658 14.8797 26.6318 14.7194 26.7638 14.5874C26.8958 14.4554 27.056 14.3894 27.2446 14.3894C27.4332 14.3894 27.5934 14.4554 27.7254 14.5874C27.8574 14.7194 27.9234 14.8797 27.9234 15.0682C27.9234 15.2568 27.8574 15.4171 27.7254 15.5491ZM28.8511 14.4234C28.7192 14.5554 28.5589 14.6214 28.3703 14.6214C28.1817 14.6214 28.0215 14.5554 27.8895 14.4234C27.7575 14.2914 27.6915 14.1311 27.6915 13.9425C27.6915 13.754 27.7575 13.5937 27.8895 13.4617C28.0215 13.3297 28.1817 13.2637 28.3703 13.2637C28.5589 13.2637 28.7192 13.3297 28.8511 13.4617C28.9831 13.5937 29.0491 13.754 29.0491 13.9425C29.0491 14.1311 28.9831 14.2914 28.8511 14.4234ZM31.18 9.16426L27.9839 12.3604C27.8594 12.4848 27.7142 12.5508 27.5483 12.5584C27.3748 12.5659 27.2296 12.5112 27.1127 12.3943C26.9958 12.2774 26.943 12.1341 26.9543 11.9644C26.9581 11.7947 27.0222 11.6476 27.1467 11.5232L27.537 11.1328C27.1749 11.1555 26.8393 11.0122 26.5301 10.7029C26.2246 10.3974 26.0323 10.0505 25.9531 9.66206C25.8739 9.27362 25.9059 8.87953 26.0492 8.47978C26.1888 8.07625 26.4245 7.70856 26.7563 7.37669C26.9336 7.19944 27.1504 7.02785 27.4069 6.86192C27.6671 6.69221 27.9537 6.54513 28.2667 6.42068L28.7362 7.47851C28.4911 7.58034 28.2705 7.69536 28.0744 7.82358C27.8783 7.94426 27.7199 8.06494 27.5992 8.18562C27.3277 8.45715 27.1712 8.74942 27.1297 9.06243C27.0882 9.37544 27.1825 9.64697 27.4125 9.87702C27.6275 10.092 27.8745 10.1844 28.1536 10.1542C28.4289 10.1203 28.723 9.94679 29.0361 9.63377L30.3428 8.32704L31.18 9.16426ZM26.2585 7.09385C26.1265 7.22584 25.9663 7.29184 25.7777 7.29184C25.5891 7.29184 25.4289 7.22584 25.2969 7.09385C25.1649 6.96185 25.0989 6.80158 25.0989 6.61301C25.0989 6.42445 25.1649 6.26417 25.2969 6.13218C25.4289 6.00019 25.5891 5.93419 25.7777 5.93419C25.9663 5.93419 26.1265 6.00019 26.2585 6.13218C26.3905 6.26417 26.4565 6.42445 26.4565 6.61301C26.4565 6.80158 26.3905 6.96185 26.2585 7.09385Z" fill="white"/>
</svg>
