<svg width="26" height="26" viewBox="0 0 26 26" fill="none" xmlns="http://www.w3.org/2000/svg">
<path d="M13.1614 0C6.28786 0.00104478 2.63428 4.40478 2.63428 9.20657C2.63428 11.433 3.87861 14.211 5.87099 15.0918C6.43935 15.3478 6.36413 15.0354 6.85308 13.1652C6.89174 13.0096 6.87189 12.8748 6.74651 12.7296C3.89846 9.43537 6.19069 2.66313 12.755 2.66313C22.2552 2.66313 20.4801 15.8085 14.4079 15.8085C12.8428 15.8085 11.6768 14.5799 12.0456 13.0597C12.4928 11.2491 13.3683 9.30269 13.3683 7.99776C13.3683 4.70881 8.46831 5.19672 8.46831 9.55448C8.46831 10.9012 8.94472 11.8101 8.94472 11.8101C8.94472 11.8101 7.36816 18.1791 7.07562 19.3691C6.5804 21.3834 7.14249 24.6442 7.19159 24.9252C7.22189 25.0799 7.39532 25.129 7.49249 25.0015C7.64816 24.7978 9.55383 22.0793 10.0877 20.114C10.282 19.3984 11.0792 16.4939 11.0792 16.4939C11.6047 17.4425 13.1196 18.2366 14.7338 18.2366C19.5356 18.2366 23.0064 14.0157 23.0064 8.77821C22.9896 3.75701 18.6925 0 13.1614 0V0Z" fill="white"/>
</svg>
