<svg width="22" height="22" viewBox="0 0 22 22" fill="none" xmlns="http://www.w3.org/2000/svg">
<g clip-path="url(#clip0_253_4524)">
<path d="M21.9434 8.36519C21.8007 7.92362 21.409 7.60999 20.9456 7.56823L14.6514 6.99671L12.1625 1.17119C11.979 0.744255 11.5611 0.467896 11.0967 0.467896C10.6323 0.467896 10.2144 0.744255 10.0308 1.17219L7.54194 6.99671L1.24673 7.56823C0.784189 7.61099 0.393525 7.92362 0.249937 8.36519C0.10635 8.80677 0.238956 9.29111 0.588857 9.59642L5.34654 13.7689L3.94361 19.9488C3.84095 20.4032 4.01732 20.8729 4.39434 21.1455C4.59699 21.2919 4.83408 21.3664 5.07317 21.3664C5.27932 21.3664 5.4838 21.3108 5.66732 21.201L11.0967 17.9561L16.5241 21.201C16.9212 21.44 17.4219 21.4182 17.798 21.1455C18.1752 20.8721 18.3514 20.4022 18.2488 19.9488L16.8458 13.7689L21.6035 9.59725C21.9534 9.29111 22.087 8.8076 21.9434 8.36519Z" fill="#FFC107"/>
</g>
<defs>
<clipPath id="clip0_253_4524">
<rect width="21.8074" height="21.8074" fill="white" transform="translate(0.192871)"/>
</clipPath>
</defs>
</svg>
