<svg width="22" height="22" viewBox="0 0 22 22" fill="none" xmlns="http://www.w3.org/2000/svg">
<g clip-path="url(#clip0_253_4532)">
<path d="M21.7506 8.36519C21.6078 7.92362 21.2162 7.60999 20.7528 7.56823L14.4586 6.99671L11.9697 1.17119C11.7861 0.744255 11.3682 0.467896 10.9038 0.467896C10.4394 0.467896 10.0215 0.744255 9.83798 1.17219L7.34907 6.99671L1.05386 7.56823C0.591317 7.61099 0.200653 7.92362 0.0570661 8.36519C-0.0865212 8.80677 0.0460849 9.29111 0.395985 9.59642L5.15367 13.7689L3.75074 19.9488C3.64808 20.4032 3.82445 20.8729 4.20147 21.1455C4.40412 21.2919 4.64121 21.3664 4.8803 21.3664C5.08645 21.3664 5.29093 21.3108 5.47445 21.201L10.9038 17.9561L16.3312 21.201C16.7283 21.44 17.229 21.4182 17.6052 21.1455C17.9824 20.8721 18.1586 20.4022 18.0559 19.9488L16.653 13.7689L21.4107 9.59725C21.7606 9.29111 21.8942 8.8076 21.7506 8.36519Z" fill="#D9D6D1"/>
</g>
<defs>
<clipPath id="clip0_253_4532">
<rect width="21.8074" height="21.8074" fill="white"/>
</clipPath>
</defs>
</svg>
