<svg width="26" height="26" viewBox="0 0 26 26" fill="none" xmlns="http://www.w3.org/2000/svg">
<path d="M23.1401 7.43133C24.1598 6.7073 25.0175 5.80357 25.7165 4.76297V4.76193C24.7835 5.17044 23.7909 5.44208 22.7545 5.57372C23.8202 4.93745 24.6341 3.9376 25.0165 2.73297C24.0229 3.32536 22.9259 3.74327 21.7568 3.9773C20.8133 2.97223 19.4687 2.35059 18.0018 2.35059C15.1559 2.35059 12.8647 4.66059 12.8647 7.49193C12.8647 7.89939 12.8992 8.29118 12.9838 8.66417C8.71065 8.45521 4.92856 6.40745 2.38767 3.2867C1.94468 4.0567 1.68349 4.93745 1.68349 5.88506C1.68349 7.66536 2.59976 9.24297 3.96737 10.1572C3.14095 10.1415 2.33125 9.90118 1.64483 9.52402V9.58043C1.64483 12.0785 3.42617 14.1534 5.76334 14.6319C5.34438 14.7469 4.88886 14.8012 4.41558 14.8012C4.08647 14.8012 3.75423 14.7824 3.44289 14.7134C4.10841 16.7486 5.99946 18.2458 8.24573 18.2949C6.49677 19.6625 4.27558 20.4868 1.87155 20.4868C1.4505 20.4868 1.04617 20.468 0.641846 20.4168C2.91946 21.8848 5.61707 22.7237 8.52781 22.7237C17.5996 22.7237 23.512 15.1554 23.1401 7.43133V7.43133Z" fill="#CC9933"/>
</svg>
